<?xml version="1.0" encoding="UTF-8" standalone="no"?>
<svg width="32px" height="32px" viewBox="0 0 32 32" version="1.1" xmlns="http://www.w3.org/2000/svg" xmlns:xlink="http://www.w3.org/1999/xlink">
    <!-- Generator: Sketch 3.7.2 (28276) - http://www.bohemiancoding.com/sketch -->
    <title>address</title>
    <desc>Created with Sketch.</desc>
    <defs></defs>
    <g id="Page-1" stroke="none" stroke-width="1" fill="none" fill-rule="evenodd">
        <g id="address" fill="#0A5BC0">
            <g id="g8">
                <g id="g10">
                    <path d="M19.333,26 L26,21.998 L26,6 L22.364,8.35 C21.572,7.635 20.533,7.188 19.382,7.188 C18.209,7.188 17.151,7.65 16.353,8.389 L12.648,6 L6,9.387 L6,26 L12.667,21.844 L19.333,26 L19.333,26 Z M13.168,20.978 L13.168,7.525 L15.686,9.148 C15.199,9.864 14.914,10.727 14.914,11.658 C14.914,12.072 14.971,12.472 15.076,12.853 C15.118,13.005 15.168,13.154 15.225,13.3 L15.36,13.608 L18.883,20.117 L18.883,24.541 L13.196,20.996 L13.168,20.978 L13.168,20.978 Z M25,21.432 L19.883,24.504 L19.883,20.115 L23.41,13.596 L23.532,13.318 C23.593,13.166 23.645,13.011 23.689,12.851 C23.794,12.471 23.851,12.07 23.851,11.656 C23.851,10.704 23.549,9.826 23.042,9.101 L25,7.837 L25,21.432 L25,21.432 Z M19.383,8.188 C21.296,8.188 22.852,9.744 22.852,11.657 C22.852,11.972 22.81,12.284 22.726,12.585 C22.692,12.708 22.651,12.829 22.617,12.916 L22.511,13.156 L19.382,18.938 L16.258,13.165 L16.154,12.931 C16.11,12.818 16.071,12.703 16.038,12.585 C15.955,12.284 15.912,11.972 15.912,11.657 C15.914,9.745 17.47,8.188 19.383,8.188 L19.383,8.188 Z M7,24.198 L7,10 L12.168,7.367 L12.168,20.977 L12.138,20.996 L7,24.198 L7,24.198 Z" id="path12"></path>
                    <path d="M19.383,13.594 C20.475,13.594 21.36,12.709 21.36,11.617 C21.36,10.525 20.475,9.64 19.383,9.64 C18.291,9.64 17.406,10.525 17.406,11.617 C17.406,12.709 18.291,13.594 19.383,13.594 L19.383,13.594 Z M19.383,10.64 C19.922,10.64 20.36,11.078 20.36,11.617 C20.36,12.156 19.922,12.594 19.383,12.594 C18.844,12.594 18.406,12.156 18.406,11.617 C18.406,11.078 18.844,10.64 19.383,10.64 L19.383,10.64 Z" id="path14"></path>
                    <path d="M16,32 C24.822,32 32,24.822 32,16 C32,7.178 24.822,0 16,0 C7.178,0 0,7.178 0,16 C0,24.822 7.178,32 16,32 L16,32 Z M16,1 C24.271,1 31,7.729 31,16 C31,24.271 24.271,31 16,31 C7.729,31 1,24.271 1,16 C1,7.729 7.729,1 16,1 L16,1 Z" id="path16"></path>
                </g>
            </g>
        </g>
    </g>
</svg>