<?xml version="1.0" encoding="UTF-8" standalone="no"?>
<svg width="92px" height="92px" viewBox="0 0 92 92" version="1.1" xmlns="http://www.w3.org/2000/svg" xmlns:xlink="http://www.w3.org/1999/xlink">
    <!-- Generator: Sketch 3.7.2 (28276) - http://www.bohemiancoding.com/sketch -->
    <title>download</title>
    <desc>Created with Sketch.</desc>
    <defs></defs>
    <g id="Page-1" stroke="none" stroke-width="1" fill="none" fill-rule="evenodd">
        <g id="download" transform="translate(1.000000, 1.000000)" fill="#0A5BC0" stroke="#0A5BC0">
            <g id="g4">
                <g id="g6">
                    <path d="M45,2.1 C21.4,2.1 2.1,21.4 2.1,45 C2.1,68.6 21.4,87.9 45,87.9 C68.6,87.9 87.9,68.7 87.9,45 C87.9,21.3 68.6,2.1 45,2.1 M45,90 C20.2,90 0,69.8 0,45 C0,20.2 20.2,0 45,0 C69.8,0 90,20.2 90,45 C90,69.8 69.8,90 45,90" id="path8"></path>
                    <path d="M52.6,56.2 L52.6,40.9 C52.6,39.9 51.8,39.1 50.8,39.1 L39.2,39.1 C38.2,39.1 37.4,39.9 37.4,40.9 L37.4,56.3 L30.3,56.3 L30.3,20.6 L48,20.6 L48,31.2 C48,31.8 48.5,32.3 49.1,32.3 L59.7,32.3 L59.7,56.3 L52.6,56.3 L52.6,56.2 Z M55,64.4 L45,74.4 L35,64.4 L38.5,64.4 C39.1,64.4 39.6,63.9 39.6,63.3 L39.6,57.3 L39.6,41.2 L50.5,41.2 L50.5,57.3 L50.5,63.3 C50.5,63.9 51,64.4 51.6,64.4 L55,64.4 L55,64.4 Z M50.1,22.1 L58.1,30.1 L50.1,30.1 L50.1,22.1 L50.1,22.1 Z M61.7,30.8 C61.6,30.7 61.6,30.6 61.5,30.5 L61.5,30.5 L49.8,18.8 L49.8,18.8 C49.7,18.7 49.6,18.6 49.5,18.6 C49.4,18.6 49.3,18.5 49.1,18.5 L49.1,18.5 L29.3,18.5 C28.7,18.5 28.2,19 28.2,19.6 L28.2,57.4 C28.2,58 28.7,58.5 29.3,58.5 L37.4,58.5 L37.4,62.4 L34.2,62.4 C33.5,62.4 32.8,62.8 32.5,63.5 C32.2,64.2 32.4,64.9 32.9,65.5 L43.7,76.3 C44,76.6 44.5,76.8 45,76.8 C45.5,76.8 45.9,76.6 46.3,76.3 L57.1,65.5 C57.6,65 57.8,64.2 57.5,63.6 C57.2,62.9 56.6,62.5 55.8,62.5 L52.6,62.5 L52.6,58.6 L60.7,58.6 C61.3,58.6 61.8,58.1 61.8,57.5 L61.8,31.2 C61.8,31.1 61.8,30.9 61.7,30.8 L61.7,30.8 Z" id="path10"></path>
                </g>
            </g>
        </g>
    </g>
</svg>