<?xml version="1.0" encoding="UTF-8" standalone="no"?>
<svg width="92px" height="92px" viewBox="0 0 92 92" version="1.1" xmlns="http://www.w3.org/2000/svg" xmlns:xlink="http://www.w3.org/1999/xlink">
    <!-- Generator: Sketch 3.7.2 (28276) - http://www.bohemiancoding.com/sketch -->
    <title>email</title>
    <desc>Created with Sketch.</desc>
    <defs></defs>
    <g id="Page-1" stroke="none" stroke-width="1" fill="none" fill-rule="evenodd">
        <g id="email" transform="translate(1.000000, 0.000000)" stroke="#0A5BC0" fill="#0A5BC0">
            <path d="M45.2,2.6 C68.9,2.6 88.2,21.9 88.2,45.6 C88.2,69.3 68.9,88.6 45.2,88.6 C21.5,88.6 2.2,69.3 2.2,45.6 C2.2,21.9 21.5,2.6 45.2,2.6 L45.2,2.6 Z M45.2,0.6 C20.3,0.6 0.2,20.7 0.2,45.6 C0.2,70.5 20.3,90.6 45.2,90.6 C70.1,90.6 90.2,70.5 90.2,45.6 C90.2,20.7 70.1,0.6 45.2,0.6 L45.2,0.6 L45.2,0.6 Z" id="path4"></path>
            <path d="M63.1,27.7 L26.9,27.7 C23.6,27.7 20.8,30.4 20.8,33.8 L20.8,56.3 C20.8,59.6 23.5,62.4 26.9,62.4 L63.2,62.4 C66.5,62.4 69.3,59.7 69.3,56.3 L69.3,33.7 C69.2,30.4 66.5,27.7 63.1,27.7 L63.1,27.7 Z M63.1,29.2 C64,29.2 64.9,29.5 65.6,29.9 L48.3,46 C46.5,47.7 43.5,47.7 41.6,46 L24.4,30 C25.1,29.5 26,29.3 26.9,29.3 L63.1,29.3 L63.1,29.2 Z M22.4,56.3 L22.4,33.7 C22.4,32.7 22.7,31.8 23.3,31.1 L33.9,40.9 L23.2,58.8 C22.7,58.1 22.4,57.2 22.4,56.3 L22.4,56.3 Z M26.9,60.8 C26,60.8 25.1,60.5 24.4,60 L35,42 L40.5,47.2 C41.7,48.3 43.3,48.9 44.9,48.9 C46.5,48.9 48.1,48.3 49.3,47.2 L55,42 L65.8,59.9 C65.1,60.4 64.2,60.8 63.2,60.8 L26.9,60.8 L26.9,60.8 Z M67.6,56.3 C67.6,57.2 67.3,58 66.9,58.7 L56.1,40.9 L66.7,31.1 C67.2,31.8 67.6,32.8 67.6,33.7 L67.6,56.3 L67.6,56.3 Z" id="path6"></path>
        </g>
    </g>
</svg>