<?xml version="1.0" encoding="UTF-8" standalone="no"?>
<svg width="90px" height="90px" viewBox="0 0 90 90" version="1.1" xmlns="http://www.w3.org/2000/svg" xmlns:xlink="http://www.w3.org/1999/xlink">
    <!-- Generator: Sketch 3.7.2 (28276) - http://www.bohemiancoding.com/sketch -->
    <title>Slice 1</title>
    <desc>Created with Sketch.</desc>
    <defs></defs>
    <g id="Page-1" stroke="none" stroke-width="1" fill="none" fill-rule="evenodd">
        <g id="phone" fill="#0A5BC0">
            <g id="g4">
                <path d="M66.159,17.864 C66.091,17.808 58.952,12.271 55.437,12.271 C55.089,12.271 54.762,12.319 54.441,12.421 C45.129,15.381 36.706,27.614 31.279,37.357 C23.395,51.517 20.364,62.557 22.281,70.207 C23.163,73.701 32.978,77.233 33.075,77.268 C33.678,77.476 34.286,77.582 34.885,77.582 C36.706,77.582 38.271,76.594 38.779,75.124 C39.124,74.126 42.605,63.236 42.981,61.898 C43.371,60.492 42.776,58.786 41.393,57.34 C40.7,56.61 38.544,54.493 37.392,53.363 C37.912,51.907 39.231,48.643 42.145,43.407 C45.06,38.168 47.141,35.327 48.103,34.12 C49.67,34.505 52.607,35.221 53.585,35.422 C55.531,35.837 57.345,35.443 58.331,34.351 C59.193,33.376 66.649,24.715 67.362,23.813 C68.503,22.355 68.367,19.667 66.159,17.864 L66.159,17.864 Z M64.743,21.754 C64.113,22.55 56.77,31.086 55.862,32.114 C55.791,32.172 55.115,32.34 54.267,32.16 C52.991,31.898 47.949,30.65 47.898,30.637 L46.96,30.406 L46.293,31.103 C46.184,31.217 43.573,33.983 39.231,41.789 C34.889,49.591 33.913,53.265 33.874,53.416 L33.631,54.352 L34.323,55.028 C34.36,55.064 38.076,58.69 38.981,59.642 C39.616,60.304 39.785,60.87 39.77,61.004 C39.404,62.305 35.916,73.204 35.647,73.994 C35.595,74.072 34.962,74.397 34.165,74.117 C31.304,73.13 26.041,70.442 25.506,69.36 C23.395,60.935 29.064,48.188 34.192,38.979 C39.324,29.764 47.177,18.229 55.437,15.605 C56.984,15.605 62.019,18.791 64.05,20.447 C64.819,21.074 64.756,21.701 64.743,21.754 L64.743,21.754 Z" id="path6"></path>
                <path d="M45,0.001 C20.187,0.001 0,20.188 0,45 C0,69.813 20.187,89.999 45,89.999 C69.812,89.999 90,69.813 90,45 C90,20.188 69.812,0.001 45,0.001 L45,0.001 Z M45,86.665 C22.025,86.665 3.333,67.974 3.333,45 C3.333,22.025 22.025,3.334 45,3.334 C67.976,3.334 86.667,22.025 86.667,45 C86.667,67.974 67.976,86.665 45,86.665 L45,86.665 Z" id="path8"></path>
            </g>
        </g>
    </g>
</svg>